<?xml version="1.0" standalone="no"?>
<!DOCTYPE svg PUBLIC "-//W3C//DTD SVG 1.1//EN" "http://www.w3.org/Graphics/SVG/1.1/DTD/svg11.dtd">
<svg
width="100%"
height="100%"
viewBox="0 0 512 512"
version="1.1"
xmlns="http://www.w3.org/2000/svg"
xmlns:xlink="http://www.w3.org/1999/xlink"
xml:space="preserve"
style="fill-rule:evenodd;clip-rule:evenodd;stroke-linejoin:round;stroke-miterlimit:1.41421;">
<path
d="M416.737,456.365l-45.554,-22.771l0,-11.925c0,-4.143 -3.357,-7.5 -7.5,-7.5l-25.632,0l0,-26.797c37.164,-3.772 66.266,-35.245 66.266,-73.388l0.001,-107.685c0,-13.404 -6.528,-25.309 -16.567,-32.714l0,-132.953c-0.001,-22.404 -18.228,-40.632 -40.634,-40.632c-22.406,0 -40.633,18.228 -40.633,40.632l0,67.904c-6.998,-5.706 -15.922,-9.134 -25.634,-9.134c-17.846,0 -33.03,11.569 -38.476,27.597c-7.273,-6.832 -17.048,-11.03 -27.791,-11.03c-9.712,0 -18.636,3.429 -25.634,9.134l0,-34.77c0,-22.405 -18.228,-40.633 -40.632,-40.633c-22.405,0 -40.633,18.227 -40.633,40.633l0,186.585c0,4.143 3.357,7.5 7.5,7.5c4.143,0 7.5,-3.357 7.5,-7.5l0,-186.585c0,-14.134 11.499,-25.633 25.633,-25.633c14.134,0 25.632,11.499 25.632,25.633l0,66.268c0,0.007 0.001,0.013 0.001,0.019l0,49.683c0,22.404 18.228,40.632 40.633,40.632c13.664,0 25.764,-6.786 33.134,-17.157c0.95,1.336 1.968,2.62 3.068,3.83c7.438,8.182 18.162,13.327 30.065,13.327c0.007,0 0.013,-0.001 0.019,-0.001l42.18,-0.001l0,18.443c-46.313,3.826 -82.833,42.741 -82.833,90.024c0,4.143 3.357,7.5 7.5,7.5c4.143,0 7.5,-3.357 7.5,-7.5c0,-41.539 33.794,-75.333 75.333,-75.333c4.143,0 7.5,-3.357 7.5,-7.5l0,-25.635l0.783,0c4.143,0 7.5,-3.358 7.5,-7.5c0,-4.143 -3.358,-7.5 -7.5,-7.5l-8.281,0c0,0 -0.002,0 -0.003,0c-0.001,0 -0.002,0 -0.003,0l-49.697,0.001c-9.275,0 -17.416,-4.952 -21.916,-12.351c-0.17,-0.279 -0.331,-0.565 -0.49,-0.852c-0.041,-0.074 -0.086,-0.146 -0.127,-0.221c-1.975,-3.632 -3.098,-7.791 -3.098,-12.208l0,-0.04c0.021,-14.116 11.511,-25.594 25.632,-25.594l33.106,0c0.009,0 0.018,0.001 0.027,0.001c0.009,0 0.018,-0.001 0.027,-0.001l49.674,-0.001c14.134,0 25.633,11.499 25.633,25.633l-0.001,107.685c0,32.403 -26.362,58.766 -58.766,58.766c-0.007,0 -0.013,0.001 -0.019,0.001l-24.831,0c-4.143,0 -7.5,3.357 -7.5,7.5c0,4.143 3.357,7.5 7.5,7.5l17.351,0l0,26.418l-134.098,0l0,-26.418l17.349,0c4.143,0 7.5,-3.357 7.5,-7.5c0,-4.143 -3.357,-7.5 -7.5,-7.5l-24.849,0c-32.404,0 -58.767,-26.362 -58.767,-58.767l0,-47.199c0,-4.143 -3.357,-7.5 -7.5,-7.5c-4.143,0 -7.5,3.357 -7.5,7.5l0,47.199c0,38.143 29.102,69.617 66.267,73.389l0,26.796l-25.633,0c-4.143,0 -7.5,3.357 -7.5,7.5l0,11.925l-45.556,22.782c-2.541,1.271 -4.146,3.868 -4.146,6.709c0,2.841 1.605,5.438 4.146,6.708l45.555,22.772l0,11.935c0,4.143 3.357,7.5 7.5,7.5l215.364,0c4.143,0 7.5,-3.357 7.5,-7.5l0,-11.936l45.555,-22.782c2.541,-1.271 4.146,-3.868 4.146,-6.709c0.001,-2.841 -1.605,-5.437 -4.146,-6.708ZM240.217,206.303c0,14.134 -11.499,25.632 -25.633,25.632c-14.134,0 -25.633,-11.498 -25.633,-25.632l0,-49.702c0,-14.134 11.499,-25.632 25.633,-25.632c14.134,0 25.633,11.498 25.633,25.632l0,49.702ZM306.483,165.667l-25.633,0c-9.711,0.001 -18.634,3.429 -25.632,9.134l-0.001,-34.767c0,-14.134 11.499,-25.633 25.633,-25.633c14.134,0 25.633,11.499 25.633,25.633l0,25.633ZM372.75,166.699c-2.917,-0.668 -5.949,-1.032 -9.065,-1.032l-42.202,0l0,-25.614c0,-0.007 0.001,-0.013 0.001,-0.019l0,-99.402c0,-14.134 11.499,-25.632 25.633,-25.632c14.134,0 25.633,11.498 25.633,25.632l0,126.067ZM140.82,475.794l-25.431,-12.711l25.431,-12.718l0,25.429ZM155.819,497l0,-67.831l200.364,0l0,67.831l-200.364,0ZM371.184,475.793l0,-25.428l25.43,12.711l-25.43,12.717Z" style="fill:#fff;fill-rule:nonzero;"/><path d="M206.301,430.731c-17.838,0 -32.35,14.512 -32.35,32.35c0,17.837 14.512,32.349 32.35,32.349c17.837,0 32.349,-14.512 32.349,-32.349c-0.001,-17.838 -14.512,-32.35 -32.349,-32.35ZM206.301,480.43c-9.566,0 -17.35,-7.782 -17.35,-17.349c0,-9.566 7.783,-17.35 17.35,-17.35c9.566,0 17.349,7.783 17.349,17.35c-0.001,9.566 -7.783,17.349 -17.349,17.349Z" style="fill:#ffff7a;fill-rule:nonzero;"/><path d="M305.7,430.731c-17.837,0 -32.349,14.512 -32.349,32.35c0,17.837 14.512,32.349 32.349,32.349c17.838,0 32.35,-14.512 32.35,-32.349c0,-17.838 -14.512,-32.35 -32.35,-32.35ZM305.7,480.43c-9.566,0 -17.349,-7.782 -17.349,-17.349c0,-9.566 7.782,-17.35 17.349,-17.35c9.566,0 17.35,7.783 17.35,17.35c0,9.566 -7.783,17.349 -17.35,17.349Z"
style="fill:#ffff7a;fill-rule:nonzero;"/>
</svg>